<svg width="388" height="165" viewBox="0 0 388 165" fill="none" xmlns="http://www.w3.org/2000/svg">
<path d="M200.1 79.0605V1.26054C200.1 0.0605361 198.6 -0.439467 197.8 0.460533L112.8 106.661C112.1 107.461 112.7 108.761 113.8 108.761H175.2C176.9 108.761 178.4 107.961 179.4 106.661L198.8 82.4605C199.6 81.5605 200.1 80.3605 200.1 79.0605ZM1.3 82.5605L65.1 162.361C66.1 163.661 67.7 164.361 69.4 164.361H130.8C131.9 164.361 132.5 163.161 131.8 162.361L2.3 0.560539C1.5 -0.339461 0 0.160542 0 1.36054V79.1605C0.1 80.3605 0.499995 81.5605 1.3 82.5605Z" fill="#FF4655"/>
<path d="M214 2V46.5C214 47.6046 214.895 48.5 216 48.5H383.992C385.641 48.5 386.582 46.6154 385.59 45.2974L352.1 0.797366C351.722 0.295303 351.13 0 350.502 0H216C214.895 0 214 0.895431 214 2Z" fill="#FF4655"/>
<path d="M265 55L314 55C315.105 55 316 55.8954 316 57L316 158.349C316 160.234 313.631 161.072 312.445 159.607L263.445 99.0503C263.157 98.6943 263 98.2502 263 97.7922L263 57C263 55.8954 263.895 55 265 55Z" fill="#FF4655"/>
</svg>
